# xmcd
#
# Track frame offsets: 
#        150
#        41600
#        65475
#        90475
#        124387
#        172287
#        234200
#
# Disc length: 3775 seconds
#
# Revision: 0
# Processed by: cddbd v1.5PL3 Copyright (c) Steve Scherf et al.
# Submitted via: ExactAudioCopy v0.95a3
#
DISCID=5b0ebd07
DTITLE=Various Artist - 古琴名曲
DYEAR=1900
DGENRE=Chinese Qin
TTITLE0=潇湘水云（瞿春尔 改编 龚一 古琴）
TTITLE1=泠沧浪（龚一 打谱 周成龙改编 龚一 古琴）
TTITLE2=高山（俞伯荪 打谱独奏）
TTITLE3=流水（管平湖 独奏）
TTITLE4=离骚（管平湖 独奏）
TTITLE5=广陵散（吴景略 打谱 吴文光 独奏）
TTITLE6=碣石调幽兰（吴文光 独奏）
EXTD=甲申孟夏中旬\n单衣试酒\n正己堂
EXTT0=
EXTT1=
EXTT2=
EXTT3=
EXTT4=
EXTT5=
EXTT6=
PLAYORDER=
